<mxfile host="app.diagrams.net" modified="2021-06-20T07:05:39.562Z" agent="5.0 (Macintosh; Intel Mac OS X 10_13_6) AppleWebKit/537.36 (KHTML, like Gecko) Chrome/91.0.4472.114 Safari/537.36" etag="W4kCbMNbuXVRsxDbqUTQ" version="14.8.0" type="github">
  <diagram id="JNrt4wU6GQRyyB7xiDXF" name="Page-1">
    <mxGraphModel dx="946" dy="578" grid="1" gridSize="10" guides="1" tooltips="1" connect="1" arrows="1" fold="1" page="1" pageScale="1" pageWidth="827" pageHeight="1169" math="0" shadow="0">
      <root>
        <mxCell id="0" />
        <mxCell id="1" parent="0" />
        <mxCell id="v5S9bi1U7MW_EjHtry2A-16" value="" style="edgeStyle=orthogonalEdgeStyle;rounded=0;orthogonalLoop=1;jettySize=auto;html=1;" edge="1" parent="1" source="v5S9bi1U7MW_EjHtry2A-1" target="v5S9bi1U7MW_EjHtry2A-3">
          <mxGeometry relative="1" as="geometry" />
        </mxCell>
        <mxCell id="v5S9bi1U7MW_EjHtry2A-1" value="Resolver watcher" style="rounded=0;whiteSpace=wrap;html=1;" vertex="1" parent="1">
          <mxGeometry x="280" y="60" width="170" height="40" as="geometry" />
        </mxCell>
        <mxCell id="v5S9bi1U7MW_EjHtry2A-17" value="" style="edgeStyle=orthogonalEdgeStyle;rounded=0;orthogonalLoop=1;jettySize=auto;html=1;" edge="1" parent="1" source="v5S9bi1U7MW_EjHtry2A-3" target="v5S9bi1U7MW_EjHtry2A-4">
          <mxGeometry relative="1" as="geometry" />
        </mxCell>
        <mxCell id="v5S9bi1U7MW_EjHtry2A-3" value="resolverwapper.UpdateState" style="rounded=0;whiteSpace=wrap;html=1;" vertex="1" parent="1">
          <mxGeometry x="280" y="140" width="170" height="40" as="geometry" />
        </mxCell>
        <mxCell id="v5S9bi1U7MW_EjHtry2A-18" value="" style="edgeStyle=orthogonalEdgeStyle;rounded=0;orthogonalLoop=1;jettySize=auto;html=1;" edge="1" parent="1" source="v5S9bi1U7MW_EjHtry2A-4" target="v5S9bi1U7MW_EjHtry2A-6">
          <mxGeometry relative="1" as="geometry" />
        </mxCell>
        <mxCell id="v5S9bi1U7MW_EjHtry2A-4" value="balancerWrapper.&lt;br&gt;updateClientConnState" style="rounded=0;whiteSpace=wrap;html=1;" vertex="1" parent="1">
          <mxGeometry x="280" y="230" width="170" height="40" as="geometry" />
        </mxCell>
        <mxCell id="v5S9bi1U7MW_EjHtry2A-19" value="" style="edgeStyle=orthogonalEdgeStyle;rounded=0;orthogonalLoop=1;jettySize=auto;html=1;" edge="1" parent="1" source="v5S9bi1U7MW_EjHtry2A-6" target="v5S9bi1U7MW_EjHtry2A-7">
          <mxGeometry relative="1" as="geometry" />
        </mxCell>
        <mxCell id="v5S9bi1U7MW_EjHtry2A-6" value="queue" style="rounded=0;whiteSpace=wrap;html=1;" vertex="1" parent="1">
          <mxGeometry x="280" y="310" width="170" height="40" as="geometry" />
        </mxCell>
        <mxCell id="v5S9bi1U7MW_EjHtry2A-20" value="" style="edgeStyle=orthogonalEdgeStyle;rounded=0;orthogonalLoop=1;jettySize=auto;html=1;" edge="1" parent="1" source="v5S9bi1U7MW_EjHtry2A-7" target="v5S9bi1U7MW_EjHtry2A-8">
          <mxGeometry relative="1" as="geometry" />
        </mxCell>
        <mxCell id="v5S9bi1U7MW_EjHtry2A-7" value="balancerWrapper.watcher" style="rounded=0;whiteSpace=wrap;html=1;" vertex="1" parent="1">
          <mxGeometry x="280" y="390" width="170" height="40" as="geometry" />
        </mxCell>
        <mxCell id="v5S9bi1U7MW_EjHtry2A-21" value="" style="edgeStyle=orthogonalEdgeStyle;rounded=0;orthogonalLoop=1;jettySize=auto;html=1;" edge="1" parent="1" source="v5S9bi1U7MW_EjHtry2A-8" target="v5S9bi1U7MW_EjHtry2A-9">
          <mxGeometry relative="1" as="geometry" />
        </mxCell>
        <mxCell id="v5S9bi1U7MW_EjHtry2A-8" value="balancer.UpdateClientConnState" style="rounded=0;whiteSpace=wrap;html=1;" vertex="1" parent="1">
          <mxGeometry x="280" y="480" width="170" height="40" as="geometry" />
        </mxCell>
        <mxCell id="v5S9bi1U7MW_EjHtry2A-11" value="" style="edgeStyle=orthogonalEdgeStyle;rounded=0;orthogonalLoop=1;jettySize=auto;html=1;" edge="1" parent="1" source="v5S9bi1U7MW_EjHtry2A-9" target="v5S9bi1U7MW_EjHtry2A-10">
          <mxGeometry relative="1" as="geometry" />
        </mxCell>
        <mxCell id="v5S9bi1U7MW_EjHtry2A-9" value="balancer.regneratePicker" style="rounded=0;whiteSpace=wrap;html=1;" vertex="1" parent="1">
          <mxGeometry x="530" y="480" width="170" height="40" as="geometry" />
        </mxCell>
        <mxCell id="v5S9bi1U7MW_EjHtry2A-10" value="Picker.pick" style="rounded=0;whiteSpace=wrap;html=1;" vertex="1" parent="1">
          <mxGeometry x="530" y="390" width="170" height="40" as="geometry" />
        </mxCell>
        <mxCell id="v5S9bi1U7MW_EjHtry2A-23" value="" style="edgeStyle=orthogonalEdgeStyle;rounded=0;orthogonalLoop=1;jettySize=auto;html=1;" edge="1" parent="1" source="v5S9bi1U7MW_EjHtry2A-12" target="v5S9bi1U7MW_EjHtry2A-14">
          <mxGeometry relative="1" as="geometry" />
        </mxCell>
        <mxCell id="v5S9bi1U7MW_EjHtry2A-12" value="grpc.Invoke" style="rounded=0;whiteSpace=wrap;html=1;" vertex="1" parent="1">
          <mxGeometry x="530" y="140" width="170" height="40" as="geometry" />
        </mxCell>
        <mxCell id="v5S9bi1U7MW_EjHtry2A-22" value="" style="edgeStyle=orthogonalEdgeStyle;rounded=0;orthogonalLoop=1;jettySize=auto;html=1;" edge="1" parent="1" source="v5S9bi1U7MW_EjHtry2A-13" target="v5S9bi1U7MW_EjHtry2A-12">
          <mxGeometry relative="1" as="geometry" />
        </mxCell>
        <mxCell id="v5S9bi1U7MW_EjHtry2A-13" value="A grpc Request" style="rounded=0;whiteSpace=wrap;html=1;" vertex="1" parent="1">
          <mxGeometry x="530" y="60" width="170" height="40" as="geometry" />
        </mxCell>
        <mxCell id="v5S9bi1U7MW_EjHtry2A-24" value="" style="edgeStyle=orthogonalEdgeStyle;rounded=0;orthogonalLoop=1;jettySize=auto;html=1;" edge="1" parent="1" source="v5S9bi1U7MW_EjHtry2A-14" target="v5S9bi1U7MW_EjHtry2A-15">
          <mxGeometry relative="1" as="geometry" />
        </mxCell>
        <mxCell id="v5S9bi1U7MW_EjHtry2A-14" value="newClientStream" style="rounded=0;whiteSpace=wrap;html=1;" vertex="1" parent="1">
          <mxGeometry x="530" y="230" width="170" height="40" as="geometry" />
        </mxCell>
        <mxCell id="v5S9bi1U7MW_EjHtry2A-25" value="" style="edgeStyle=orthogonalEdgeStyle;rounded=0;orthogonalLoop=1;jettySize=auto;html=1;" edge="1" parent="1" source="v5S9bi1U7MW_EjHtry2A-15" target="v5S9bi1U7MW_EjHtry2A-10">
          <mxGeometry relative="1" as="geometry" />
        </mxCell>
        <mxCell id="v5S9bi1U7MW_EjHtry2A-15" value="getTransport" style="rounded=0;whiteSpace=wrap;html=1;" vertex="1" parent="1">
          <mxGeometry x="530" y="310" width="170" height="40" as="geometry" />
        </mxCell>
      </root>
    </mxGraphModel>
  </diagram>
</mxfile>
